<svg xmlns="http://www.w3.org/2000/svg" width="15" height="19" viewBox="0 0 15 19">
  <defs>
    <style>
      .cls-1 {
        fill: #80b412;
        fill-rule: evenodd;
      }
    </style>
  </defs>
  <path class="cls-1" d="M302.928,40.01H301.9L301.208,42.8l-0.721-2.788h-1.07c0.214,0.657.438,1.319,0.652,1.978a18.209,18.209,0,0,1,.621,2.247v2.876h1.016V44.235Zm2.715,5.387V43.544a2.154,2.154,0,0,0-.285-1.247,1.322,1.322,0,0,0-2.135,0,2.13,2.13,0,0,0-.287,1.247V45.4a2.125,2.125,0,0,0,.287,1.245,1.323,1.323,0,0,0,2.135,0A2.15,2.15,0,0,0,305.643,45.4Zm-0.917.181c0,0.489-.141.734-0.436,0.734s-0.438-.245-0.438-0.734V43.352c0-.49.142-0.733,0.438-0.733s0.436,0.244.436,0.733v2.226Zm4.305,1.533V41.82h-0.916v4.044a0.809,0.809,0,0,1-.58.449,0.213,0.213,0,0,1-.214-0.224,2.368,2.368,0,0,1-.011-0.373V41.82H306.4V46a2.806,2.806,0,0,0,.082.787,0.561,0.561,0,0,0,.59.394,1.459,1.459,0,0,0,1.047-.651v0.578h0.916ZM312,53.532a17.544,17.544,0,0,1-.263,3.712,1.931,1.931,0,0,1-1.621,1.543,72.739,72.739,0,0,1-11.234,0,1.93,1.93,0,0,1-1.621-1.543A17.609,17.609,0,0,1,297,53.532a17.549,17.549,0,0,1,.265-3.712,1.925,1.925,0,0,1,1.62-1.541,72.44,72.44,0,0,1,11.234,0,1.927,1.927,0,0,1,1.621,1.541,17.613,17.613,0,0,1,.26,3.712m-7.982-1.84h-0.908v4a0.8,0.8,0,0,1-.573.443,0.212,0.212,0,0,1-.212-0.222,3.173,3.173,0,0,1-.008-0.369V51.693h-0.906v4.141a2.773,2.773,0,0,0,.08.779,0.555,0.555,0,0,0,.584.389,1.439,1.439,0,0,0,1.035-.643v0.571h0.908V51.693m5.052,2V53.21q0-.726.455-0.727c0.3,0,.451.243,0.451,0.727v0.484h-0.906m0.463-2.065a1.267,1.267,0,0,0-1.086.537,2.11,2.11,0,0,0-.28,1.234v1.834a2.1,2.1,0,0,0,.291,1.231,1.275,1.275,0,0,0,1.1.536,1.239,1.239,0,0,0,1.1-.567,1.415,1.415,0,0,0,.211-0.568c0.008-.1.02-0.307,0.02-0.612V55.116h-0.926c0,0.381-.011.59-0.019,0.642a0.4,0.4,0,0,1-.4.381c-0.311,0-.463-0.241-0.463-0.726V54.484h1.813V53.4a2.132,2.132,0,0,0-.281-1.234,1.239,1.239,0,0,0-1.069-.537M301.277,49.9h-3.161v0.99h1.066v6.038h1.008V50.891h1.087V49.9m4.882,6.237a0.635,0.635,0,0,1-.452-0.232V52.714a0.639,0.639,0,0,1,.452-0.231c0.261,0,.394.243,0.394,0.715v2.235c0,0.473-.133.706-0.394,0.706M305.707,49.9H304.8v7.028h0.907V56.422a1.221,1.221,0,0,0,.936.579,0.724,0.724,0,0,0,.725-0.588,4.412,4.412,0,0,0,.091-1.055V53.272a4.26,4.26,0,0,0-.091-1.053,0.724,0.724,0,0,0-.725-0.591,1.216,1.216,0,0,0-.936.568V49.9" transform="translate(-297 -40)"/>
</svg>
