<svg xmlns="http://www.w3.org/2000/svg" width="17" height="18" viewBox="0 0 17 18">
  <defs>
    <style>
      .cls-1 {
        fill: #80b412;
        fill-rule: evenodd;
      }
    </style>
  </defs>
  <path class="cls-1" d="M259.14,41.859a3.025,3.025,0,0,1,.476.4,4.243,4.243,0,0,1,.5.681,4.63,4.63,0,0,1,.414.9,4.415,4.415,0,0,1,.148,1.21,3.68,3.68,0,0,1-.533,2.029,6.179,6.179,0,0,1-.532.68q-0.31.31-.662,0.634a3.253,3.253,0,0,0-.371.5,1.138,1.138,0,0,0-.2.668,0.91,0.91,0,0,0,.206.611,4.756,4.756,0,0,0,.34.4l0.763,0.657a7.9,7.9,0,0,1,1.245,1.349,3.573,3.573,0,0,1,.526,1.959,4.035,4.035,0,0,1-1.443,3.044A6.32,6.32,0,0,1,255.7,59a5.256,5.256,0,0,1-3.524-1.058A2.91,2.91,0,0,1,251,55.63a3.446,3.446,0,0,1,.383-1.462,3.383,3.383,0,0,1,1.342-1.414,6.8,6.8,0,0,1,2.293-.875,16.623,16.623,0,0,1,1.976-.207,5.143,5.143,0,0,1-.433-0.718,1.709,1.709,0,0,1-.221-0.892,1.4,1.4,0,0,1,.083-0.522l0.138-.406a6.119,6.119,0,0,1-.722.047,3.374,3.374,0,0,1-2.735-1.188,3.636,3.636,0,0,1-.985-2.524,4.409,4.409,0,0,1,1.4-3.159,4.821,4.821,0,0,1,1.99-1.084,9.222,9.222,0,0,1,1.917-.219h4.493l-1.387.852H259.14Zm0.868,13.6a2.37,2.37,0,0,0-.558-1.568,13.745,13.745,0,0,0-1.846-1.557,4.824,4.824,0,0,0-.5-0.022,5.627,5.627,0,0,0-.88.045,9.3,9.3,0,0,0-1.428.334c-0.114.047-.274,0.116-0.482,0.208a2.974,2.974,0,0,0-.633.426,2.47,2.47,0,0,0-.526.715,2.22,2.22,0,0,0-.246,1.084,2.467,2.467,0,0,0,1.072,2.052,4.481,4.481,0,0,0,2.79.831,3.726,3.726,0,0,0,2.425-.739A2.281,2.281,0,0,0,260.008,55.462Zm-3.132-6.927a2.055,2.055,0,0,0,1.478-.671,2.513,2.513,0,0,0,.367-0.924c0.032-.316.049-0.581,0.049-0.8a6.489,6.489,0,0,0-.68-2.818,3.118,3.118,0,0,0-.839-1.108,2.092,2.092,0,0,0-1.221-.427,1.943,1.943,0,0,0-1.519.774,3.009,3.009,0,0,0-.488,1.756,5.822,5.822,0,0,0,.713,2.668,3.6,3.6,0,0,0,.891,1.1A1.9,1.9,0,0,0,256.876,48.536ZM268,43.588h-2.357v-2.48H264.5v2.48h-2.357v1.2H264.5v2.479h1.143V44.79H268v-1.2Z" transform="translate(-251 -41)"/>
</svg>
