<svg xmlns="http://www.w3.org/2000/svg" width="17" height="14" viewBox="0 0 17 14">
  <defs>
    <style>
      .cls-1 {
        fill: #80b412;
        fill-rule: evenodd;
      }
    </style>
  </defs>
  <path class="cls-1" d="M223,44.662a6.9,6.9,0,0,1-2,.556,3.535,3.535,0,0,0,1.534-1.955,6.925,6.925,0,0,1-2.214.858,3.466,3.466,0,0,0-2.547-1.116,3.51,3.51,0,0,0-3.487,3.533,3.55,3.55,0,0,0,.09.8,9.856,9.856,0,0,1-7.189-3.692,3.569,3.569,0,0,0,1.079,4.717,3.436,3.436,0,0,1-1.579-.442v0.044a3.524,3.524,0,0,0,2.8,3.465,3.454,3.454,0,0,1-.919.125,3.417,3.417,0,0,1-.656-0.064,3.5,3.5,0,0,0,3.258,2.454,6.941,6.941,0,0,1-4.332,1.513,7.023,7.023,0,0,1-.831-0.05A9.786,9.786,0,0,0,211.347,57a9.924,9.924,0,0,0,9.922-10.052c0-.153,0-0.305-0.009-0.458A7.169,7.169,0,0,0,223,44.662Z" transform="translate(-206 -43)"/>
</svg>
